  0
SECTION
  2
HEADER
  9
$ACADVER
  1
AC1009
  9
$DWGCODEPAGE
  3
ansi_1252
  9
$INSBASE
 10
0.0
 20
0.0
 30
0.0
  9
$EXTMIN
 10
-188.4968725465484
 20
-159.9777885319843
 30
0.0
  9
$EXTMAX
 10
41.0269483271855
 20
61.08144631171264
 30
0.0
  9
$LIMMIN
 10
0.0
 20
0.0
  9
$LIMMAX
 10
12.0
 20
9.0
  9
$ORTHOMODE
 70
     0
  9
$REGENMODE
 70
     1
  9
$FILLMODE
 70
     1
  9
$QTEXTMODE
 70
     0
  9
$MIRRTEXT
 70
     1
  9
$DRAGMODE
 70
     2
  9
$LTSCALE
 40
1.0
  9
$OSMODE
 70
    37
  9
$ATTMODE
 70
     1
  9
$TEXTSIZE
 40
0.2
  9
$TRACEWID
 40
0.05
  9
$TEXTSTYLE
  7
STANDARD
  9
$CLAYER
  8
0
  9
$CELTYPE
  6
BYLAYER
  9
$CECOLOR
 62
   256
  9
$DIMSCALE
 40
1.0
  9
$DIMASZ
 40
0.18
  9
$DIMEXO
 40
0.0625
  9
$DIMDLI
 40
0.38
  9
$DIMRND
 40
0.0
  9
$DIMDLE
 40
0.0
  9
$DIMEXE
 40
0.18
  9
$DIMTP
 40
0.0
  9
$DIMTM
 40
0.0
  9
$DIMTXT
 40
0.18
  9
$DIMCEN
 40
0.09
  9
$DIMTSZ
 40
0.0
  9
$DIMTOL
 70
     0
  9
$DIMLIM
 70
     0
  9
$DIMTIH
 70
     1
  9
$DIMTOH
 70
     1
  9
$DIMSE1
 70
     0
  9
$DIMSE2
 70
     0
  9
$DIMTAD
 70
     0
  9
$DIMZIN
 70
     0
  9
$DIMBLK
  1

  9
$DIMASO
 70
     1
  9
$DIMSHO
 70
     1
  9
$DIMPOST
  1

  9
$DIMAPOST
  1

  9
$DIMALT
 70
     0
  9
$DIMALTD
 70
     2
  9
$DIMALTF
 40
25.4
  9
$DIMLFAC
 40
1.0
  9
$DIMTOFL
 70
     0
  9
$DIMTVP
 40
0.0
  9
$DIMTIX
 70
     0
  9
$DIMSOXD
 70
     0
  9
$DIMSAH
 70
     0
  9
$DIMBLK1
  1

  9
$DIMBLK2
  1

  9
$DIMSTYLE
  2
STANDARD
  9
$DIMCLRD
 70
     0
  9
$DIMCLRE
 70
     0
  9
$DIMCLRT
 70
     0
  9
$DIMTFAC
 40
1.0
  9
$DIMGAP
 40
0.09
  9
$LUNITS
 70
     2
  9
$LUPREC
 70
     4
  9
$SKETCHINC
 40
0.1
  9
$FILLETRAD
 40
0.5
  9
$AUNITS
 70
     0
  9
$AUPREC
 70
     0
  9
$MENU
  1
.
  9
$ELEVATION
 40
0.0
  9
$PELEVATION
 40
0.0
  9
$THICKNESS
 40
0.0
  9
$LIMCHECK
 70
     0
  9
$CHAMFERA
 40
0.5
  9
$CHAMFERB
 40
0.5
  9
$SKPOLY
 70
     0
  9
$TDCREATE
 40
2454910.5
  9
$TDUPDATE
 40
2459746.552512581
  9
$TDINDWG
 40
0.0000000116
  9
$TDUSRTIMER
 40
0.0000000116
  9
$USRTIMER
 70
     1
  9
$ANGBASE
 50
0.0
  9
$ANGDIR
 70
     0
  9
$PDMODE
 70
     0
  9
$PDSIZE
 40
0.0
  9
$PLINEWID
 40
0.0
  9
$COORDS
 70
     1
  9
$SPLFRAME
 70
     0
  9
$SPLINETYPE
 70
     6
  9
$SPLINESEGS
 70
     8
  9
$ATTDIA
 70
     0
  9
$ATTREQ
 70
     1
  9
$HANDLING
 70
     1
  9
$HANDSEED
  5
D6
  9
$SURFTAB1
 70
     6
  9
$SURFTAB2
 70
     6
  9
$SURFTYPE
 70
     6
  9
$SURFU
 70
     6
  9
$SURFV
 70
     6
  9
$UCSNAME
  2

  9
$UCSORG
 10
0.0
 20
0.0
 30
0.0
  9
$UCSXDIR
 10
1.0
 20
0.0
 30
0.0
  9
$UCSYDIR
 10
0.0
 20
1.0
 30
0.0
  9
$PUCSNAME
  2

  9
$PUCSORG
 10
0.0
 20
0.0
 30
0.0
  9
$PUCSXDIR
 10
1.0
 20
0.0
 30
0.0
  9
$PUCSYDIR
 10
0.0
 20
1.0
 30
0.0
  9
$USERI1
 70
     0
  9
$USERI2
 70
     0
  9
$USERI3
 70
     0
  9
$USERI4
 70
     0
  9
$USERI5
 70
     0
  9
$USERR1
 40
0.0
  9
$USERR2
 40
0.0
  9
$USERR3
 40
0.0
  9
$USERR4
 40
0.0
  9
$USERR5
 40
0.0
  9
$WORLDVIEW
 70
     1
  9
$SHADEDGE
 70
     3
  9
$SHADEDIF
 70
    70
  9
$TILEMODE
 70
     1
  9
$MAXACTVP
 70
    64
  9
$PLIMCHECK
 70
     0
  9
$PEXTMIN
 10
1.000000000000000E+20
 20
1.000000000000000E+20
 30
1.000000000000000E+20
  9
$PEXTMAX
 10
-1.000000000000000E+20
 20
-1.000000000000000E+20
 30
-1.000000000000000E+20
  9
$PLIMMIN
 10
0.0
 20
0.0
  9
$PLIMMAX
 10
12.0
 20
9.0
  9
$UNITMODE
 70
     0
  9
$VISRETAIN
 70
     1
  9
$PLINEGEN
 70
     0
  9
$PSLTSCALE
 70
     1
  0
ENDSEC
  0
SECTION
  2
TABLES
  0
TABLE
  2
VPORT
 70
     1
  0
VPORT
  2
*ACTIVE
 70
     0
 10
0.0
 20
0.0
 11
1.0
 21
1.0
 12
10.42990654205607
 22
4.5
 13
0.0
 23
0.0
 14
0.5
 24
0.5
 15
0.5
 25
0.5
 16
0.0
 26
0.0
 36
1.0
 17
0.0
 27
0.0
 37
0.0
 40
9.0
 41
1.972972972850329
 42
50.0
 43
0.0
 44
0.0
 50
0.0
 51
0.0
 71
     0
 72
   100
 73
     1
 74
     3
 75
     0
 76
     0
 77
     0
 78
     0
  0
ENDTAB
  0
TABLE
  2
LTYPE
 70
     2
  0
LTYPE
  2
CONTINUOUS
 70
     0
  3
Solid line
 72
    65
 73
     0
 40
0.0
  0
LTYPE
  2
CONTINUOUS2
 70
     0
  3
Solid Line
 72
    65
 73
     0
 40
0.0
  0
ENDTAB
  0
TABLE
  2
LAYER
 70
     2
  0
LAYER
  2
0
 70
     0
 62
     7
  6
CONTINUOUS
  0
LAYER
  2
LAYER_1
 70
     0
 62
    18
  6
CONTINUOUS
  0
ENDTAB
  0
TABLE
  2
STYLE
 70
     1
  0
STYLE
  2
STANDARD
 70
     0
 40
0.0
 41
1.0
 50
0.0
 71
     0
 42
0.2
  3
txt
  4

  0
ENDTAB
  0
TABLE
  2
VIEW
 70
     0
  0
ENDTAB
  0
TABLE
  2
UCS
 70
     0
  0
ENDTAB
  0
TABLE
  2
APPID
 70
     1
  0
APPID
  2
ACAD
 70
     0
  0
ENDTAB
  0
TABLE
  2
DIMSTYLE
 70
     1
  0
DIMSTYLE
  2
STANDARD
 70
     0
  3

  4

  5

  6

  7

 40
1.0
 41
0.18
 42
0.0625
 43
0.38
 44
0.18
 45
0.0
 46
0.0
 47
0.0
 48
0.0
140
0.18
141
0.09
142
0.0
143
25.4
144
1.0
145
0.0
146
1.0
147
0.09
 71
     0
 72
     0
 73
     1
 74
     1
 75
     0
 76
     0
 77
     0
 78
     0
170
     0
171
     2
172
     0
173
     0
174
     0
175
     0
176
     0
177
     0
178
     0
  0
ENDTAB
  0
ENDSEC
  0
SECTION
  2
BLOCKS
  0
BLOCK
  8
0
  2
$MODEL_SPACE
 70
     0
 10
0.0
 20
0.0
 30
0.0
  3
$MODEL_SPACE
  1

  0
ENDBLK
  5
21
  8
0
  0
BLOCK
 67
     1
  8
0
  2
$PAPER_SPACE
 70
     0
 10
0.0
 20
0.0
 30
0.0
  3
$PAPER_SPACE
  1

  0
ENDBLK
  5
1D
 67
     1
  8
0
  0
ENDSEC
  0
SECTION
  2
ENTITIES
  0
POLYLINE
  5
41
  8
LAYER_1
 66
     1
 10
0.0
 20
0.0
 30
0.0
 70
     1
  0
VERTEX
  5
57
  8
LAYER_1
 10
-160.5053932737628
 20
-134.9778192556262
 30
0.0
  0
VERTEX
  5
58
  8
LAYER_1
 10
-160.5053932737628
 20
-136.4777885319843
 30
0.0
  0
VERTEX
  5
59
  8
LAYER_1
 10
-146.4475553988043
 20
-136.4777885319843
 30
0.0
  0
VERTEX
  5
5A
  8
LAYER_1
 10
-146.4475553988043
 20
-134.9778192556262
 30
0.0
  0
VERTEX
  5
5B
  8
LAYER_1
 10
-125.4475553988044
 20
-134.9778192556262
 30
0.0
  0
VERTEX
  5
5C
  8
LAYER_1
 10
-125.4475553988044
 20
-136.4777885319843
 30
0.0
  0
VERTEX
  5
5D
  8
LAYER_1
 10
-118.4764743362836
 20
-136.4777885319843
 30
0.0
  0
VERTEX
  5
5E
  8
LAYER_1
 10
-118.4764743362836
 20
-159.9777885319843
 30
0.0
  0
VERTEX
  5
5F
  8
LAYER_1
 10
-188.4764743362836
 20
-159.9777885319843
 30
0.0
  0
VERTEX
  5
60
  8
LAYER_1
 10
-188.4764743362836
 20
-136.4777885319843
 30
0.0
  0
VERTEX
  5
61
  8
LAYER_1
 10
-181.5053932737628
 20
-136.4777885319843
 30
0.0
  0
VERTEX
  5
62
  8
LAYER_1
 10
-181.5053932737628
 20
-134.9778192556262
 30
0.0
  0
SEQEND
  5
63
  8
LAYER_1
  0
POLYLINE
  5
42
  8
LAYER_1
 66
     1
 10
0.0
 20
0.0
 30
0.0
 70
     1
  0
VERTEX
  5
64
  8
LAYER_1
 10
35.0
 20
-65.0
 30
0.0
  0
VERTEX
  5
65
  8
LAYER_1
 10
28.02891893747923
 20
-65.0
 30
0.0
  0
VERTEX
  5
66
  8
LAYER_1
 10
28.02891893747923
 20
-63.5
 30
0.0
  0
VERTEX
  5
67
  8
LAYER_1
 10
7.028918937479261
 20
-63.5
 30
0.0
  0
VERTEX
  5
68
  8
LAYER_1
 10
7.028918937479261
 20
-65.0
 30
0.0
  0
VERTEX
  5
69
  8
LAYER_1
 10
-7.028918937479233
 20
-65.0
 30
0.0
  0
VERTEX
  5
6A
  8
LAYER_1
 10
-7.028918937479233
 20
-63.5
 30
0.0
  0
VERTEX
  5
6B
  8
LAYER_1
 10
-28.02891893747923
 20
-63.49999999999999
 30
0.0
  0
VERTEX
  5
6C
  8
LAYER_1
 10
-28.02891893747923
 20
-65.0
 30
0.0
  0
VERTEX
  5
6D
  8
LAYER_1
 10
-35.0
 20
-65.0
 30
0.0
  0
VERTEX
  5
6E
  8
LAYER_1
 10
-35.0
 20
61.0
 30
0.0
  0
VERTEX
  5
6F
  8
LAYER_1
 10
35.0
 20
61.0
 30
0.0
  0
SEQEND
  5
70
  8
LAYER_1
  0
POLYLINE
  5
43
  8
LAYER_1
 66
     1
 10
0.0
 20
0.0
 30
0.0
 70
     1
  0
VERTEX
  5
71
  8
LAYER_1
 10
-188.4968725465484
 20
-133.0362007471109
 30
0.0
  0
VERTEX
  5
72
  8
LAYER_1
 10
-38.49687254654842
 20
-133.0362007471109
 30
0.0
  0
VERTEX
  5
73
  8
LAYER_1
 10
-38.49687254654842
 20
61.08144631171264
 30
0.0
  0
VERTEX
  5
74
  8
LAYER_1
 10
-188.4968725465484
 20
61.08144631171264
 30
0.0
  0
SEQEND
  5
75
  8
LAYER_1
  0
POLYLINE
  5
44
  8
LAYER_1
 66
     1
 10
0.0
 20
0.0
 30
0.0
 70
     1
  0
VERTEX
  5
76
  8
LAYER_1
 10
-127.7740406881413
 20
-116.0791471292035
 30
0.0
  0
VERTEX
  5
77
  8
LAYER_1
 10
-117.7740406881413
 20
-116.0791471292035
 30
0.0
  0
VERTEX
  5
78
  8
LAYER_1
 10
-117.7740406881413
 20
-45.07914712920351
 30
0.0
  0
VERTEX
  5
79
  8
LAYER_1
 10
-127.7740406881413
 20
-45.07914712920351
 30
0.0
  0
SEQEND
  5
7A
  8
LAYER_1
  0
POLYLINE
  5
45
  8
LAYER_1
 66
     1
 10
0.0
 20
0.0
 30
0.0
 70
     1
  0
VERTEX
  5
7B
  8
LAYER_1
 10
-109.2197044049555
 20
-116.0791471292035
 30
0.0
  0
VERTEX
  5
7C
  8
LAYER_1
 10
-99.2197044049555
 20
-116.0791471292035
 30
0.0
  0
VERTEX
  5
7D
  8
LAYER_1
 10
-99.2197044049555
 20
-45.07914712920351
 30
0.0
  0
VERTEX
  5
7E
  8
LAYER_1
 10
-109.2197044049555
 20
-45.07914712920351
 30
0.0
  0
SEQEND
  5
7F
  8
LAYER_1
  0
POLYLINE
  5
46
  8
LAYER_1
 66
     1
 10
0.0
 20
0.0
 30
0.0
 70
     1
  0
VERTEX
  5
80
  8
LAYER_1
 10
-21.52284380143602
 20
-123.7252499084051
 30
0.0
  0
VERTEX
  5
81
  8
LAYER_1
 10
-22.45659202208012
 20
-122.5580646324292
 30
0.0
  0
VERTEX
  5
82
  8
LAYER_1
 10
-6.839215832327632
 20
-110.0641636824555
 30
0.0
  0
VERTEX
  5
83
  8
LAYER_1
 10
-5.905467612575428
 20
-111.2313489573166
 30
0.0
  0
VERTEX
  5
84
  8
LAYER_1
 10
13.53548298490666
 20
-95.67858847933091
 30
0.0
  0
VERTEX
  5
85
  8
LAYER_1
 10
12.60124585287836
 20
-94.51079206412463
 30
0.0
  0
VERTEX
  5
86
  8
LAYER_1
 10
28.21862204263085
 20
-82.01689111415097
 30
0.0
  0
VERTEX
  5
87
  8
LAYER_1
 10
29.15285917376728
 20
-83.18468752824243
 30
0.0
  0
VERTEX
  5
88
  8
LAYER_1
 10
39.52711873555291
 20
-74.8852798788139
 30
0.0
  0
VERTEX
  5
89
  8
LAYER_1
 10
39.52711873555291
 20
-94.38527987881395
 30
0.0
  0
VERTEX
  5
8A
  8
LAYER_1
 10
41.0269483271855
 20
-94.38527987881395
 30
0.0
  0
VERTEX
  5
8B
  8
LAYER_1
 10
41.0269483271855
 20
-115.3852798788139
 30
0.0
  0
VERTEX
  5
8C
  8
LAYER_1
 10
39.52711873555291
 20
-115.3852798788139
 30
0.0
  0
VERTEX
  5
8D
  8
LAYER_1
 10
39.52711873555291
 20
-134.8852798788139
 30
0.0
  0
VERTEX
  5
8E
  8
LAYER_1
 10
-35.47288126444706
 20
-134.8852798788139
 30
0.0
  0
SEQEND
  5
8F
  8
LAYER_1
  0
POLYLINE
  5
47
  8
LAYER_1
 66
     1
 10
0.0
 20
0.0
 30
0.0
 70
     1
  0
VERTEX
  5
90
  8
LAYER_1
 10
27.07691086417444
 20
-78.73775586692186
 30
0.0
  0
VERTEX
  5
91
  8
LAYER_1
 10
28.01065908481855
 20
-79.90494114289781
 30
0.0
  0
VERTEX
  5
92
  8
LAYER_1
 10
12.39328289506606
 20
-92.39884209287148
 30
0.0
  0
VERTEX
  5
93
  8
LAYER_1
 10
11.45953467531384
 20
-91.23165681801036
 30
0.0
  0
VERTEX
  5
94
  8
LAYER_1
 10
-7.981415922168246
 20
-106.784417295996
 30
0.0
  0
VERTEX
  5
95
  8
LAYER_1
 10
-7.047178790139945
 20
-107.9522137112023
 30
0.0
  0
VERTEX
  5
96
  8
LAYER_1
 10
-22.66455497989244
 20
-120.446114661176
 30
0.0
  0
VERTEX
  5
97
  8
LAYER_1
 10
-23.59879211102885
 20
-119.2783182470845
 30
0.0
  0
VERTEX
  5
98
  8
LAYER_1
 10
-33.9730516728145
 20
-127.577725896513
 30
0.0
  0
VERTEX
  5
99
  8
LAYER_1
 10
-33.9730516728145
 20
-108.077725896513
 30
0.0
  0
VERTEX
  5
9A
  8
LAYER_1
 10
-35.47288126444706
 20
-108.077725896513
 30
0.0
  0
VERTEX
  5
9B
  8
LAYER_1
 10
-35.47288126444706
 20
-87.07772589651309
 30
0.0
  0
VERTEX
  5
9C
  8
LAYER_1
 10
-33.9730516728145
 20
-87.07772589651309
 30
0.0
  0
VERTEX
  5
9D
  8
LAYER_1
 10
-33.9730516728145
 20
-67.57772589651303
 30
0.0
  0
VERTEX
  5
9E
  8
LAYER_1
 10
41.0269483271855
 20
-67.57772589651303
 30
0.0
  0
SEQEND
  5
9F
  8
LAYER_1
  0
POLYLINE
  5
48
  8
LAYER_1
 66
     1
 10
0.0
 20
0.0
 30
0.0
 70
     1
  0
VERTEX
  5
A0
  8
LAYER_1
 10
-108.6885036176995
 20
-147.2988419874709
 30
0.0
 42
0.4142135623730951
  0
VERTEX
  5
A1
  8
LAYER_1
 10
-104.6885036176995
 20
-151.2988419874709
 30
0.0
 42
0.4142135623730951
  0
VERTEX
  5
A2
  8
LAYER_1
 10
-100.6885036176995
 20
-147.2988419874709
 30
0.0
 42
0.4142135623730951
  0
VERTEX
  5
A3
  8
LAYER_1
 10
-104.6885036176995
 20
-143.2988419874709
 30
0.0
 42
0.4142135623730951
  0
SEQEND
  5
A4
  8
LAYER_1
  0
POLYLINE
  5
49
  8
LAYER_1
 66
     1
 10
0.0
 20
0.0
 30
0.0
 70
     1
  0
VERTEX
  5
A5
  8
LAYER_1
 10
-88.65849815221281
 20
-147.2988419874709
 30
0.0
 42
0.4142135623730951
  0
VERTEX
  5
A6
  8
LAYER_1
 10
-84.65849815221284
 20
-151.2988419874709
 30
0.0
 42
0.4142135623730951
  0
VERTEX
  5
A7
  8
LAYER_1
 10
-80.65849815221284
 20
-147.2988419874709
 30
0.0
 42
0.4142135623730951
  0
VERTEX
  5
A8
  8
LAYER_1
 10
-84.65849815221281
 20
-143.2988419874709
 30
0.0
 42
0.4142135623730951
  0
SEQEND
  5
A9
  8
LAYER_1
  0
POLYLINE
  5
4A
  8
LAYER_1
 66
     1
 10
0.0
 20
0.0
 30
0.0
 70
     1
  0
VERTEX
  5
AA
  8
LAYER_1
 10
-74.67350088495618
 20
-137.2988419874709
 30
0.0
  0
VERTEX
  5
AB
  8
LAYER_1
 10
-74.67350088495618
 20
-157.2988419874709
 30
0.0
  0
VERTEX
  5
AC
  8
LAYER_1
 10
-84.17350088495616
 20
-157.2988419874709
 30
0.0
  0
VERTEX
  5
AD
  8
LAYER_1
 10
-84.17350088495616
 20
-158.7985711098741
 30
0.0
  0
VERTEX
  5
AE
  8
LAYER_1
 10
-105.1735008849562
 20
-158.7985711098741
 30
0.0
  0
VERTEX
  5
AF
  8
LAYER_1
 10
-105.1735008849562
 20
-157.2988419874709
 30
0.0
  0
VERTEX
  5
B0
  8
LAYER_1
 10
-114.6735008849562
 20
-157.2988419874709
 30
0.0
  0
VERTEX
  5
B1
  8
LAYER_1
 10
-114.6735008849562
 20
-137.2988419874709
 30
0.0
  0
SEQEND
  5
B2
  8
LAYER_1
  0
POLYLINE
  5
4B
  8
LAYER_1
 66
     1
 10
0.0
 20
0.0
 30
0.0
 70
     1
  0
VERTEX
  5
B3
  8
LAYER_1
 10
-139.0845
 20
5.406999999999975
 30
0.0
  0
VERTEX
  5
B4
  8
LAYER_1
 10
-135.9095
 20
5.406999999999975
 30
0.0
  0
VERTEX
  5
B5
  8
LAYER_1
 10
-135.9095
 20
26.40700000000002
 30
0.0
  0
VERTEX
  5
B6
  8
LAYER_1
 10
-139.0845
 20
26.40700000000002
 30
0.0
  0
SEQEND
  5
B7
  8
LAYER_1
  0
POLYLINE
  5
4C
  8
LAYER_1
 66
     1
 10
0.0
 20
0.0
 30
0.0
 70
     1
  0
VERTEX
  5
B8
  8
LAYER_1
 10
-91.0845
 20
5.406999999999975
 30
0.0
  0
VERTEX
  5
B9
  8
LAYER_1
 10
-87.90950000000001
 20
5.406999999999975
 30
0.0
  0
VERTEX
  5
BA
  8
LAYER_1
 10
-87.90950000000001
 20
26.40700000000002
 30
0.0
  0
VERTEX
  5
BB
  8
LAYER_1
 10
-91.0845
 20
26.40700000000002
 30
0.0
  0
SEQEND
  5
BC
  8
LAYER_1
  0
POLYLINE
  5
4D
  8
LAYER_1
 66
     1
 10
0.0
 20
0.0
 30
0.0
 70
     1
  0
VERTEX
  5
BD
  8
LAYER_1
 10
-168.0755
 20
-68.306
 30
0.0
  0
VERTEX
  5
BE
  8
LAYER_1
 10
-164.9005
 20
-68.306
 30
0.0
  0
VERTEX
  5
BF
  8
LAYER_1
 10
-164.9005
 20
-46.306
 30
0.0
  0
VERTEX
  5
C0
  8
LAYER_1
 10
-168.0755
 20
-46.306
 30
0.0
  0
SEQEND
  5
C1
  8
LAYER_1
  0
POLYLINE
  5
4E
  8
LAYER_1
 66
     1
 10
0.0
 20
0.0
 30
0.0
 70
     1
  0
VERTEX
  5
C2
  8
LAYER_1
 10
22.4125
 20
-51.9712407372687
 30
0.0
  0
VERTEX
  5
C3
  8
LAYER_1
 10
25.5875
 20
-51.9712407372687
 30
0.0
  0
VERTEX
  5
C4
  8
LAYER_1
 10
25.5875
 20
-30.97124073726872
 30
0.0
  0
VERTEX
  5
C5
  8
LAYER_1
 10
22.4125
 20
-30.97124073726872
 30
0.0
  0
SEQEND
  5
C6
  8
LAYER_1
  0
POLYLINE
  5
4F
  8
LAYER_1
 66
     1
 10
0.0
 20
0.0
 30
0.0
 70
     1
  0
VERTEX
  5
C7
  8
LAYER_1
 10
22.4125
 20
-7.204997531629959
 30
0.0
  0
VERTEX
  5
C8
  8
LAYER_1
 10
25.5875
 20
-7.204997531629959
 30
0.0
  0
VERTEX
  5
C9
  8
LAYER_1
 10
25.5875
 20
13.79500246837005
 30
0.0
  0
VERTEX
  5
CA
  8
LAYER_1
 10
22.4125
 20
13.79500246837005
 30
0.0
  0
SEQEND
  5
CB
  8
LAYER_1
  0
POLYLINE
  5
50
  8
LAYER_1
 66
     1
 10
0.0
 20
0.0
 30
0.0
 70
     1
  0
VERTEX
  5
CC
  8
LAYER_1
 10
-25.5875
 20
-51.9712407372687
 30
0.0
  0
VERTEX
  5
CD
  8
LAYER_1
 10
-22.4125
 20
-51.9712407372687
 30
0.0
  0
VERTEX
  5
CE
  8
LAYER_1
 10
-22.4125
 20
-30.97124073726872
 30
0.0
  0
VERTEX
  5
CF
  8
LAYER_1
 10
-25.5875
 20
-30.97124073726872
 30
0.0
  0
SEQEND
  5
D0
  8
LAYER_1
  0
POLYLINE
  5
51
  8
LAYER_1
 66
     1
 10
0.0
 20
0.0
 30
0.0
 70
     1
  0
VERTEX
  5
D1
  8
LAYER_1
 10
-25.5875
 20
-7.204997531629959
 30
0.0
  0
VERTEX
  5
D2
  8
LAYER_1
 10
-22.4125
 20
-7.204997531629959
 30
0.0
  0
VERTEX
  5
D3
  8
LAYER_1
 10
-22.4125
 20
13.79500246837005
 30
0.0
  0
VERTEX
  5
D4
  8
LAYER_1
 10
-25.5875
 20
13.79500246837005
 30
0.0
  0
SEQEND
  5
D5
  8
LAYER_1
  0
ENDSEC
  0
EOF
